<mxfile host="app.diagrams.net" modified="2024-04-18T12:54:32.776Z" agent="Mozilla/5.0 (Windows NT 10.0; Win64; x64) AppleWebKit/537.36 (KHTML, like Gecko) Chrome/120.0.0.0 YaBrowser/24.1.0.0 Safari/537.36" version="24.2.5" etag="NfsSieVPC6btXHEQmck4" type="github">
  <diagram name="Страница — 1" id="a_8XOOTKgFyd3tKsPht4">
    <mxGraphModel>
      <root>
        <mxCell id="0" />
        <mxCell id="1" parent="0" />
      </root>
    </mxGraphModel>
  </diagram>
</mxfile>
